<svg width="257" height="55" viewBox="0 0 257 55" fill="none" xmlns="http://www.w3.org/2000/svg">
<path d="M45.6238 10.5052L29.4558 1.1809C26.7256 -0.393688 23.3331 -0.39358 20.6028 1.1809L4.43491 10.5052C1.69931 12.0827 0 15.0247 0 18.1829V36.817C0 39.9752 1.69931 42.9172 4.4348 44.4947L20.6028 53.819C23.3335 55.3939 26.7259 55.3934 29.4558 53.819L45.6237 44.4947C48.3593 42.9172 50.0586 39.9752 50.0586 36.817V18.1829C50.0586 15.0248 48.3593 12.0828 45.6238 10.5052ZM45.7617 36.817C45.7617 38.4438 44.8864 39.9592 43.4773 40.7718L27.3093 50.0961C25.9029 50.9073 24.1556 50.9073 22.7492 50.0961L6.5812 40.7718C5.17215 39.9591 4.29688 38.4438 4.29688 36.817V18.1829C4.29688 16.5562 5.17215 15.0408 6.58131 14.2283L22.7492 4.90393C24.1557 4.09268 25.9035 4.093 27.3094 4.90393L43.4774 14.2281C44.8864 15.0408 45.7617 16.5561 45.7617 18.1829V36.817Z" fill="#C778DD"/>
<path d="M22.9876 25.8596L15.0082 19.1067C14.1025 18.3401 12.7468 18.453 11.9803 19.359C11.2139 20.265 11.3269 21.6208 12.2326 22.3874L18.2738 27.5L12.2326 32.6125C11.3269 33.3791 11.214 34.7349 11.9803 35.6409C12.7486 36.5488 14.1047 36.6578 15.0082 35.8931L22.9876 29.1402C24.0028 28.2812 23.9999 26.7163 22.9876 25.8596Z" fill="#C778DD"/>
<path d="M36.4381 32.104H26.7707C25.5841 32.104 24.6223 33.066 24.6223 34.2528C24.6223 35.4396 25.5841 36.4015 26.7707 36.4015H36.4381C37.6246 36.4015 38.5866 35.4396 38.5866 34.2528C38.5866 33.066 37.6247 32.104 36.4381 32.104Z" fill="#C778DD"/>
<path d="M80.7969 18.7852L74.5566 39H67.9297L77.334 13.4062H81.5352L80.7969 18.7852ZM85.9648 39L79.707 18.7852L78.8984 13.4062H83.1523L92.6094 39H85.9648ZM85.7188 29.4551V34.2188H72.5879V29.4551H85.7188ZM100.467 12V39H94.5254V12H100.467ZM113.334 39.3516C111.787 39.3516 110.404 39.1113 109.186 38.6309C107.967 38.1387 106.936 37.4648 106.092 36.6094C105.26 35.7539 104.621 34.7695 104.176 33.6562C103.742 32.543 103.525 31.3652 103.525 30.123V29.4551C103.525 28.0605 103.719 26.7715 104.105 25.5879C104.492 24.3926 105.066 23.3496 105.828 22.459C106.59 21.5684 107.545 20.877 108.693 20.3848C109.842 19.8809 111.178 19.6289 112.701 19.6289C114.049 19.6289 115.256 19.8457 116.322 20.2793C117.389 20.7129 118.291 21.334 119.029 22.1426C119.779 22.9512 120.348 23.9297 120.734 25.0781C121.133 26.2266 121.332 27.5156 121.332 28.9453V31.3535H105.793V27.6445H115.549V27.1875C115.561 26.5547 115.449 26.0156 115.215 25.5703C114.992 25.125 114.664 24.7852 114.23 24.5508C113.797 24.3164 113.27 24.1992 112.648 24.1992C112.004 24.1992 111.471 24.3398 111.049 24.6211C110.639 24.9023 110.316 25.2891 110.082 25.7812C109.859 26.2617 109.701 26.8184 109.607 27.4512C109.514 28.084 109.467 28.752 109.467 29.4551V30.123C109.467 30.8262 109.561 31.4648 109.748 32.0391C109.947 32.6133 110.229 33.1055 110.592 33.5156C110.967 33.9141 111.412 34.2246 111.928 34.4473C112.455 34.6699 113.053 34.7812 113.721 34.7812C114.529 34.7812 115.326 34.6289 116.111 34.3242C116.896 34.0195 117.57 33.5156 118.133 32.8125L120.822 36.0117C120.436 36.5625 119.885 37.0957 119.17 37.6113C118.467 38.127 117.623 38.5488 116.639 38.877C115.654 39.1934 114.553 39.3516 113.334 39.3516ZM128.768 19.9805L131.439 25.2188L134.199 19.9805H140.352L135.359 29.2441L140.615 39H134.41L131.439 33.375L128.486 39H122.281L127.537 29.2441L122.562 19.9805H128.768ZM173.205 25.6934V26.7305C173.205 28.6875 172.93 30.4453 172.379 32.0039C171.84 33.5508 171.072 34.875 170.076 35.9766C169.08 37.0664 167.902 37.9043 166.543 38.4902C165.184 39.0645 163.684 39.3516 162.043 39.3516C160.391 39.3516 158.879 39.0645 157.508 38.4902C156.148 37.9043 154.965 37.0664 153.957 35.9766C152.961 34.875 152.188 33.5508 151.637 32.0039C151.098 30.4453 150.828 28.6875 150.828 26.7305V25.6934C150.828 23.7363 151.098 21.9785 151.637 20.4199C152.188 18.8613 152.955 17.5371 153.939 16.4473C154.936 15.3457 156.113 14.5078 157.473 13.9336C158.844 13.3477 160.355 13.0547 162.008 13.0547C163.648 13.0547 165.148 13.3477 166.508 13.9336C167.879 14.5078 169.062 15.3457 170.059 16.4473C171.055 17.5371 171.828 18.8613 172.379 20.4199C172.93 21.9785 173.205 23.7363 173.205 25.6934ZM166.947 26.7305V25.6582C166.947 24.3926 166.836 23.2793 166.613 22.3184C166.402 21.3457 166.086 20.5312 165.664 19.875C165.242 19.2188 164.721 18.7266 164.1 18.3984C163.49 18.0586 162.793 17.8887 162.008 17.8887C161.188 17.8887 160.473 18.0586 159.863 18.3984C159.254 18.7266 158.744 19.2188 158.334 19.875C157.924 20.5312 157.613 21.3457 157.402 22.3184C157.203 23.2793 157.104 24.3926 157.104 25.6582V26.7305C157.104 27.9844 157.203 29.0977 157.402 30.0703C157.613 31.0312 157.924 31.8457 158.334 32.5137C158.756 33.1816 159.271 33.6855 159.881 34.0254C160.502 34.3652 161.223 34.5352 162.043 34.5352C162.828 34.5352 163.525 34.3652 164.135 34.0254C164.744 33.6855 165.254 33.1816 165.664 32.5137C166.086 31.8457 166.402 31.0312 166.613 30.0703C166.836 29.0977 166.947 27.9844 166.947 26.7305ZM186.143 19.9805V24.0938H174.682V19.9805H186.143ZM177.09 15.252H183.014V32.7949C183.014 33.2988 183.072 33.6914 183.189 33.9727C183.307 34.2422 183.506 34.4355 183.787 34.5527C184.08 34.6582 184.467 34.7109 184.947 34.7109C185.287 34.7109 185.568 34.7051 185.791 34.6934C186.014 34.6699 186.225 34.6406 186.424 34.6055V38.8418C185.92 39.0059 185.393 39.1289 184.842 39.2109C184.291 39.3047 183.705 39.3516 183.084 39.3516C181.818 39.3516 180.734 39.1523 179.832 38.7539C178.941 38.3555 178.262 37.7285 177.793 36.873C177.324 36.0176 177.09 34.9043 177.09 33.5332V15.252ZM194.756 19.9805V39H188.814V19.9805H194.756ZM188.463 15.0762C188.463 14.2324 188.768 13.541 189.377 13.002C189.986 12.4629 190.777 12.1934 191.75 12.1934C192.723 12.1934 193.514 12.4629 194.123 13.002C194.732 13.541 195.037 14.2324 195.037 15.0762C195.037 15.9199 194.732 16.6113 194.123 17.1504C193.514 17.6895 192.723 17.959 191.75 17.959C190.777 17.959 189.986 17.6895 189.377 17.1504C188.768 16.6113 188.463 15.9199 188.463 15.0762ZM207.623 39.3516C206.076 39.3516 204.693 39.1113 203.475 38.6309C202.256 38.1387 201.225 37.4648 200.381 36.6094C199.549 35.7539 198.91 34.7695 198.465 33.6562C198.031 32.543 197.814 31.3652 197.814 30.123V29.4551C197.814 28.0605 198.008 26.7715 198.395 25.5879C198.781 24.3926 199.355 23.3496 200.117 22.459C200.879 21.5684 201.834 20.877 202.982 20.3848C204.131 19.8809 205.467 19.6289 206.99 19.6289C208.338 19.6289 209.545 19.8457 210.611 20.2793C211.678 20.7129 212.58 21.334 213.318 22.1426C214.068 22.9512 214.637 23.9297 215.023 25.0781C215.422 26.2266 215.621 27.5156 215.621 28.9453V31.3535H200.082V27.6445H209.838V27.1875C209.85 26.5547 209.738 26.0156 209.504 25.5703C209.281 25.125 208.953 24.7852 208.52 24.5508C208.086 24.3164 207.559 24.1992 206.938 24.1992C206.293 24.1992 205.76 24.3398 205.338 24.6211C204.928 24.9023 204.605 25.2891 204.371 25.7812C204.148 26.2617 203.99 26.8184 203.896 27.4512C203.803 28.084 203.756 28.752 203.756 29.4551V30.123C203.756 30.8262 203.85 31.4648 204.037 32.0391C204.236 32.6133 204.518 33.1055 204.881 33.5156C205.256 33.9141 205.701 34.2246 206.217 34.4473C206.744 34.6699 207.342 34.7812 208.01 34.7812C208.818 34.7812 209.615 34.6289 210.4 34.3242C211.186 34.0195 211.859 33.5156 212.422 32.8125L215.111 36.0117C214.725 36.5625 214.174 37.0957 213.459 37.6113C212.756 38.127 211.912 38.5488 210.928 38.877C209.943 39.1934 208.842 39.3516 207.623 39.3516ZM223.848 24.041V39H217.924V19.9805H223.479L223.848 24.041ZM223.145 28.8398L221.756 28.875C221.756 27.4219 221.932 26.127 222.283 24.9902C222.635 23.8418 223.133 22.8691 223.777 22.0723C224.422 21.2754 225.189 20.6719 226.08 20.2617C226.982 19.8398 227.984 19.6289 229.086 19.6289C229.965 19.6289 230.768 19.7578 231.494 20.0156C232.232 20.2734 232.865 20.6895 233.393 21.2637C233.932 21.8379 234.342 22.5996 234.623 23.5488C234.916 24.4863 235.062 25.6465 235.062 27.0293V39H229.104V27.0117C229.104 26.25 228.998 25.6699 228.787 25.2715C228.576 24.8613 228.271 24.5801 227.873 24.4277C227.475 24.2754 226.988 24.1992 226.414 24.1992C225.805 24.1992 225.289 24.3164 224.867 24.5508C224.445 24.7852 224.105 25.1133 223.848 25.5352C223.602 25.9453 223.42 26.4316 223.303 26.9941C223.197 27.5566 223.145 28.1719 223.145 28.8398ZM237.611 29.6836V29.3145C237.611 27.9199 237.811 26.6367 238.209 25.4648C238.607 24.2812 239.193 23.2559 239.967 22.3887C240.74 21.5215 241.695 20.8477 242.832 20.3672C243.969 19.875 245.281 19.6289 246.77 19.6289C248.27 19.6289 249.588 19.875 250.725 20.3672C251.873 20.8477 252.834 21.5215 253.607 22.3887C254.381 23.2559 254.967 24.2812 255.365 25.4648C255.764 26.6367 255.963 27.9199 255.963 29.3145V29.6836C255.963 31.0664 255.764 32.3496 255.365 33.5332C254.967 34.7051 254.381 35.7305 253.607 36.6094C252.834 37.4766 251.879 38.1504 250.742 38.6309C249.605 39.1113 248.293 39.3516 246.805 39.3516C245.316 39.3516 243.998 39.1113 242.85 38.6309C241.701 38.1504 240.74 37.4766 239.967 36.6094C239.193 35.7305 238.607 34.7051 238.209 33.5332C237.811 32.3496 237.611 31.0664 237.611 29.6836ZM243.535 29.3145V29.6836C243.535 30.3984 243.588 31.0664 243.693 31.6875C243.799 32.3086 243.975 32.8535 244.221 33.3223C244.467 33.7793 244.801 34.1367 245.223 34.3945C245.645 34.6523 246.172 34.7812 246.805 34.7812C247.426 34.7812 247.941 34.6523 248.352 34.3945C248.773 34.1367 249.107 33.7793 249.354 33.3223C249.6 32.8535 249.775 32.3086 249.881 31.6875C249.986 31.0664 250.039 30.3984 250.039 29.6836V29.3145C250.039 28.623 249.986 27.9727 249.881 27.3633C249.775 26.7422 249.6 26.1973 249.354 25.7285C249.107 25.248 248.773 24.873 248.352 24.6035C247.93 24.334 247.402 24.1992 246.77 24.1992C246.148 24.1992 245.627 24.334 245.205 24.6035C244.795 24.873 244.467 25.248 244.221 25.7285C243.975 26.1973 243.799 26.7422 243.693 27.3633C243.588 27.9727 243.535 28.623 243.535 29.3145Z" fill="#C778DD"/>
</svg>
